<svg xmlns="http://www.w3.org/2000/svg" width="108" height="108" viewBox="0 0 108 108">
  <rect width="108" height="108" rx="22" fill="#1565C0"/>
  <!-- Footstep icon (from ic_launcher_foreground.xml) -->
  <path fill="#FFFFFF" d="M42,38c-2,0 -3.5,1.5 -3.5,3.5v7c0,2 1.5,3.5 3.5,3.5s3.5,-1.5 3.5,-3.5v-7c0,-2 -1.5,-3.5 -3.5,-3.5z"/>
  <path fill="#FFFFFF" d="M50,35c-2,0 -3.5,1.5 -3.5,3.5v10c0,2 1.5,3.5 3.5,3.5s3.5,-1.5 3.5,-3.5v-10c0,-2 -1.5,-3.5 -3.5,-3.5z"/>
  <path fill="#FFFFFF" d="M58,38c-2,0 -3.5,1.5 -3.5,3.5v7c0,2 1.5,3.5 3.5,3.5s3.5,-1.5 3.5,-3.5v-7c0,-2 -1.5,-3.5 -3.5,-3.5z"/>
  <path fill="#FFFFFF" d="M65,42c-1.5,0 -3,1.5 -3,3v5c0,1.5 1.5,3 3,3s3,-1.5 3,-3v-5c0,-1.5 -1.5,-3 -3,-3z"/>
  <path fill="#FFFFFF" d="M50,55c-8,0 -15,3 -15,7v4h30v-4c0,-4 -7,-7 -15,-7z"/>
</svg>
